<svg width="160" height="160" viewBox="0 0 160 160" fill="none" xmlns="http://www.w3.org/2000/svg">
<rect x="0.5" y="0.5" width="159" height="159" fill="white"/>
<path d="M46.6667 55V96.6666H67.5V80C67.5 77.7898 68.378 75.6702 69.9408 74.1074C71.5036 72.5446 73.6232 71.6666 75.8333 71.6666H96.6667C98.8768 71.6666 100.996 72.5446 102.559 74.1074C104.122 75.6702 105 77.7898 105 80V96.6666H113.333V55H46.6667ZM30 113.333V105H46.6667C44.4565 105 42.3369 104.122 40.7741 102.559C39.2113 100.996 38.3333 98.8768 38.3333 96.6666V55C38.3333 52.7898 39.2113 50.6702 40.7741 49.1074C42.3369 47.5446 44.4565 46.6666 46.6667 46.6666H113.333C115.543 46.6666 117.663 47.5446 119.226 49.1074C120.789 50.6702 121.667 52.7898 121.667 55V96.6666C121.667 98.8768 120.789 100.996 119.226 102.559C117.663 104.122 115.543 105 113.333 105H130V113.333H105C105 115.543 104.122 117.663 102.559 119.226C100.996 120.789 98.8768 121.667 96.6667 121.667H75.8333C73.6232 121.667 71.5036 120.789 69.9408 119.226C68.378 117.663 67.5 115.543 67.5 113.333H30ZM77.9167 113.333C77.3641 113.333 76.8342 113.553 76.4435 113.943C76.0528 114.334 75.8333 114.864 75.8333 115.417C75.8333 115.969 76.0528 116.499 76.4435 116.89C76.8342 117.28 77.3641 117.5 77.9167 117.5C78.4692 117.5 78.9991 117.28 79.3898 116.89C79.7805 116.499 80 115.969 80 115.417C80 114.864 79.7805 114.334 79.3898 113.943C78.9991 113.553 78.4692 113.333 77.9167 113.333ZM94.5833 113.333C94.0308 113.333 93.5009 113.553 93.1102 113.943C92.7195 114.334 92.5 114.864 92.5 115.417C92.5 115.969 92.7195 116.499 93.1102 116.89C93.5009 117.28 94.0308 117.5 94.5833 117.5C95.1359 117.5 95.6658 117.28 96.0565 116.89C96.4472 116.499 96.6667 115.969 96.6667 115.417C96.6667 114.864 96.4472 114.334 96.0565 113.943C95.6658 113.553 95.1359 113.333 94.5833 113.333ZM84.1667 113.333V117.5H88.3333V113.333H84.1667ZM75.8333 80V109.167H96.6667V80H75.8333Z" fill="black"/>
<rect x="0.5" y="0.5" width="159" height="159" stroke="#CCCCCC"/>
</svg>
