<svg width="250" height="250" viewBox="0 0 250 250" fill="none" xmlns="http://www.w3.org/2000/svg">
<rect x="0.5" y="0.5" width="249" height="249" fill="white"/>
<path d="M75 87.5V150H106.25V125C106.25 121.685 107.567 118.505 109.911 116.161C112.255 113.817 115.435 112.5 118.75 112.5H150C153.315 112.5 156.495 113.817 158.839 116.161C161.183 118.505 162.5 121.685 162.5 125V150H175V87.5H75ZM50 175V162.5H75C71.6848 162.5 68.5054 161.183 66.1612 158.839C63.817 156.495 62.5 153.315 62.5 150V87.5C62.5 84.1848 63.817 81.0054 66.1612 78.6612C68.5054 76.317 71.6848 75 75 75H175C178.315 75 181.495 76.317 183.839 78.6612C186.183 81.0054 187.5 84.1848 187.5 87.5V150C187.5 153.315 186.183 156.495 183.839 158.839C181.495 161.183 178.315 162.5 175 162.5H200V175H162.5C162.5 178.315 161.183 181.495 158.839 183.839C156.495 186.183 153.315 187.5 150 187.5H118.75C115.435 187.5 112.255 186.183 109.911 183.839C107.567 181.495 106.25 178.315 106.25 175H50ZM121.875 175C121.046 175 120.251 175.329 119.665 175.915C119.079 176.501 118.75 177.296 118.75 178.125C118.75 178.954 119.079 179.749 119.665 180.335C120.251 180.921 121.046 181.25 121.875 181.25C122.704 181.25 123.499 180.921 124.085 180.335C124.671 179.749 125 178.954 125 178.125C125 177.296 124.671 176.501 124.085 175.915C123.499 175.329 122.704 175 121.875 175ZM146.875 175C146.046 175 145.251 175.329 144.665 175.915C144.079 176.501 143.75 177.296 143.75 178.125C143.75 178.954 144.079 179.749 144.665 180.335C145.251 180.921 146.046 181.25 146.875 181.25C147.704 181.25 148.499 180.921 149.085 180.335C149.671 179.749 150 178.954 150 178.125C150 177.296 149.671 176.501 149.085 175.915C148.499 175.329 147.704 175 146.875 175ZM131.25 175V181.25H137.5V175H131.25ZM118.75 125V168.75H150V125H118.75Z" fill="black"/>
<rect x="0.5" y="0.5" width="249" height="249" stroke="#CCCCCC"/>
</svg>
