<svg width="160" height="160" viewBox="0 0 160 160" fill="none" xmlns="http://www.w3.org/2000/svg">
<rect width="160" height="160" fill="white"/>
<path d="M39.9033 40.9906H120.11V119.009H39.9033V40.9906Z" fill="#1C0A00"/>
<path d="M39.9031 40.9906H120.109V119.009H39.9031V40.9906ZM36.25 122.656H123.75V37.3438H36.25V122.656ZM93.5625 67.75C93.5625 67.4594 93.6719 67.3125 94 67.3125H99.725C100.016 67.3125 100.162 67.4219 100.162 67.75V96.5156C100.162 96.8062 100.091 96.9531 99.725 96.9531H94.0781C93.7125 96.9531 93.6031 96.7719 93.6031 96.4781V67.75H93.5656H93.5625ZM93.1625 59.475C93.1625 58.4887 93.5543 57.5428 94.2517 56.8454C94.9491 56.148 95.895 55.7562 96.8813 55.7562C97.8675 55.7562 98.8134 56.148 99.5108 56.8454C100.208 57.5428 100.6 58.4887 100.6 59.475C100.636 59.9788 100.562 60.4845 100.383 60.9569C100.205 61.4293 99.9252 61.8572 99.5646 62.2109C99.2041 62.5647 98.7709 62.8358 98.2951 63.0055C97.8194 63.1752 97.3124 63.2394 96.8094 63.1937C96.3165 63.2247 95.8228 63.149 95.3618 62.972C94.9007 62.7949 94.4833 62.5206 94.1378 62.1677C93.7924 61.8148 93.527 61.3917 93.3597 60.927C93.1925 60.4623 93.1274 59.9671 93.1688 59.475H93.1625ZM76.7562 79.7469C75.7344 75.6844 73.3188 66.8781 72.4188 62.6125H72.3469C71.5812 66.8781 69.65 74.0969 68.1187 79.7469H76.7562ZM66.6219 85.6531L63.7406 96.5906C63.6687 96.8812 63.5594 96.9562 63.1937 96.9562H57.8406C57.475 96.9562 57.4031 96.8469 57.475 96.4094L67.8281 60.1594C68.0801 59.1711 68.203 58.1543 68.1938 57.1344C68.1938 56.8781 68.3031 56.7688 68.4844 56.7688H76.1406C76.3969 56.7688 76.5062 56.8406 76.5781 57.1344L88.1719 96.4719C88.2437 96.7625 88.1719 96.9469 87.8812 96.9469H81.8281C81.5375 96.9469 81.3531 96.875 81.2812 96.6344L78.2906 85.6594H66.625L66.6219 85.6531Z" fill="#FF7F18"/>
</svg>
