<svg width="160" height="160" viewBox="0 0 160 160" fill="none" xmlns="http://www.w3.org/2000/svg">
<rect x="0.5" y="0.5" width="159" height="159" fill="white" stroke="#CCCCCC"/>
<g clip-path="url(#clip0_238_425)">
<path d="M114.791 49.6028L108.353 121.725L79.4136 129.747L50.5544 121.736L44.123 49.6028H114.791Z" fill="#E44D26"/>
<path d="M79.457 123.615L102.841 117.132L108.343 55.5005H79.457V123.615Z" fill="#F16529"/>
<path d="M66.9419 73.1945H79.4571V64.3477H57.2734L57.4851 66.7211L59.6596 91.1006H79.4571V82.2538H67.7504L66.9419 73.1945V73.1945ZM68.9358 95.5241H60.0549L61.2942 109.415L79.4164 114.445L79.4571 114.434V105.23L79.4183 105.24L69.5657 102.58L68.9358 95.5241Z" fill="#EBEBEB"/>
<path d="M50.6982 30H55.1941V34.4418H59.3068V30H63.803V43.451H59.3071V38.9468H55.1944V43.451H50.6985V30H50.6982ZM69.7149 34.4607H65.7575V30H78.1714V34.4607H74.2115V43.451H69.7157V34.4607H69.7154H69.7149ZM80.1415 30H84.8293L87.7129 34.7263L90.5938 30H95.2836V43.451H90.806V36.7839L87.7129 41.5665H87.6354L84.5403 36.7839V43.451H80.1415V30ZM97.521 30H102.018V39.005H108.341V43.451H97.5207V30H97.521Z" fill="black"/>
<path d="M79.4265 91.1006H90.3205L89.2933 102.574L79.4263 105.237V114.441L97.5628 109.415L97.6958 107.92L99.775 84.6294L99.9908 82.2538H79.4265V91.1006ZM79.4265 73.1729V73.1945H100.796L100.973 71.2061L101.376 66.7211L101.588 64.3477H79.4265V73.1731V73.1729Z" fill="white"/>
</g>
<defs>
<clipPath id="clip0_238_425">
<rect width="70.9141" height="100" fill="white" transform="translate(44 30)"/>
</clipPath>
</defs>
</svg>
