<svg width="250" height="250" viewBox="0 0 250 250" fill="none" xmlns="http://www.w3.org/2000/svg">
<rect x="0.5" y="0.5" width="249" height="249" fill="white"/>
<path d="M64.8545 66.486H185.164V183.514H64.8545V66.486Z" fill="#1C0A00"/>
<path d="M64.8547 66.4859H185.164V183.514H64.8547V66.4859ZM59.375 188.984H190.625V61.0156H59.375V188.984ZM145.344 106.625C145.344 106.189 145.508 105.969 146 105.969H154.588C155.023 105.969 155.244 106.133 155.244 106.625V149.773C155.244 150.209 155.136 150.43 154.588 150.43H146.117C145.569 150.43 145.405 150.158 145.405 149.717V106.625H145.348H145.344ZM144.744 94.2125C144.744 92.7331 145.331 91.3143 146.378 90.2682C147.424 89.2221 148.842 88.6344 150.322 88.6344C151.801 88.6344 153.22 89.2221 154.266 90.2682C155.312 91.3143 155.9 92.7331 155.9 94.2125C155.954 94.9682 155.843 95.7267 155.575 96.4353C155.307 97.144 154.888 97.7858 154.347 98.3164C153.806 98.847 153.156 99.2537 152.443 99.5082C151.729 99.7628 150.969 99.8591 150.214 99.7906C149.475 99.837 148.734 99.7235 148.043 99.458C147.351 99.1924 146.725 98.7809 146.207 98.2516C145.689 97.7223 145.29 97.0875 145.04 96.3905C144.789 95.6935 144.691 94.9507 144.753 94.2125H144.744ZM120.134 124.62C118.602 118.527 114.978 105.317 113.628 98.9188H113.52C112.372 105.317 109.475 116.145 107.178 124.62H120.134ZM104.933 133.48L100.611 149.886C100.503 150.322 100.339 150.434 99.7906 150.434H91.7609C91.2125 150.434 91.1047 150.27 91.2125 149.614L106.742 95.2391C107.12 93.7566 107.305 92.2314 107.291 90.7016C107.291 90.3172 107.455 90.1531 107.727 90.1531H119.211C119.595 90.1531 119.759 90.2609 119.867 90.7016L137.258 149.708C137.366 150.144 137.258 150.42 136.822 150.42H127.742C127.306 150.42 127.03 150.312 126.922 149.952L122.436 133.489H104.938L104.933 133.48Z" fill="#FF7F18"/>
<rect x="0.5" y="0.5" width="249" height="249" stroke="#CCCCCC"/>
</svg>
