<svg width="160" height="160" viewBox="0 0 160 160" fill="none" xmlns="http://www.w3.org/2000/svg">
<rect x="0.5" y="0.5" width="159" height="159" fill="white"/>
<g clip-path="url(#clip0_231_273)">
<path d="M66.3333 120C73.6933 120 79.6667 114.027 79.6667 106.667V93.3334H66.3333C58.9733 93.3334 53 99.3067 53 106.667C53 114.027 58.9733 120 66.3333 120Z" fill="#0ACF83"/>
<path d="M53 80C53 72.64 58.9733 66.6666 66.3333 66.6666H79.6667V93.3333H66.3333C58.9733 93.3333 53 87.36 53 80Z" fill="#A259FF"/>
<path d="M53 53.3333C53 45.9733 58.9733 40 66.3333 40H79.6667V66.6667H66.3333C58.9733 66.6667 53 60.6933 53 53.3333Z" fill="#F24E1E"/>
<path d="M79.6665 40H92.9998C100.36 40 106.333 45.9733 106.333 53.3333C106.333 60.6933 100.36 66.6667 92.9998 66.6667H79.6665V40Z" fill="#FF7262"/>
<path d="M106.333 80C106.333 87.36 100.36 93.3333 92.9998 93.3333C85.6398 93.3333 79.6665 87.36 79.6665 80C79.6665 72.64 85.6398 66.6666 92.9998 66.6666C100.36 66.6666 106.333 72.64 106.333 80Z" fill="#1ABCFE"/>
</g>
<rect x="0.5" y="0.5" width="159" height="159" stroke="#CCCCCC"/>
<defs>
<clipPath id="clip0_231_273">
<rect width="53.3333" height="80" fill="white" transform="translate(53 40)"/>
</clipPath>
</defs>
</svg>
