<svg width="250" height="250" viewBox="0 0 250 250" fill="none" xmlns="http://www.w3.org/2000/svg">
<rect x="0.5" y="0.5" width="249" height="249" fill="white"/>
<g clip-path="url(#clip0_169_330)">
<path d="M178.186 79.4042L168.53 187.587L125.121 199.621L81.832 187.604L72.1851 79.4042H178.186Z" fill="#E44D26"/>
<path d="M125.186 190.422L160.262 180.698L168.514 88.2509H125.186V190.422Z" fill="#F16529"/>
<path d="M106.413 114.792H125.186V101.521H91.9102L92.2276 105.082L95.4894 141.651H125.186V128.381H107.626L106.413 114.792V114.792ZM109.404 148.286H96.0823L97.9413 169.122L125.125 176.668L125.186 176.652V162.845L125.127 162.86L110.349 158.87L109.404 148.286Z" fill="#EBEBEB"/>
<path d="M82.0469 50H88.7906V56.6627H94.9598V50H101.704V70.1765H94.9602V63.4202H88.7911V70.1765H82.0473V50H82.0469ZM110.572 56.691H104.636V50H123.257V56.691H117.317V70.1765H110.573V56.691H110.573H110.572ZM126.212 50H133.243L137.569 57.0895L141.89 50H148.925V70.1765H142.209V60.1759L137.569 67.3497H137.453L132.81 60.1759V70.1765H126.212V50ZM152.281 50H159.027V63.5075H168.51V70.1765H152.281V50H152.281Z" fill="black"/>
<path d="M125.14 141.651H141.481L139.94 158.861L125.14 162.856V176.662L152.344 169.122L152.544 166.88L155.663 131.944L155.986 128.381H125.14V141.651ZM125.14 114.759V114.792H157.194L157.46 111.809L158.065 105.082L158.382 101.521H125.14V114.76V114.759Z" fill="white"/>
</g>
<rect x="0.5" y="0.5" width="249" height="249" stroke="#CCCCCC"/>
<defs>
<clipPath id="clip0_169_330">
<rect width="106.371" height="150" fill="white" transform="translate(72 50)"/>
</clipPath>
</defs>
</svg>
