<svg width="250" height="250" viewBox="0 0 250 250" fill="none" xmlns="http://www.w3.org/2000/svg">
<rect x="0.5" y="0.5" width="249" height="249" fill="white"/>
<g clip-path="url(#clip0_208_111)">
<path fill-rule="evenodd" clip-rule="evenodd" d="M216.296 105.377L224.663 105.423C224.663 105.423 209.107 126.503 207.836 128.221C207.424 128.777 206.797 129.377 206.479 130.121C205.676 131.991 204.851 136.092 204.851 136.092L197.195 136.13C197.195 136.13 198.386 131.855 198.337 129.578C198.294 127.589 197.279 125.602 196.709 123.607C196.133 121.588 195.352 117.636 195.352 117.636H203.223L204.308 121.979L216.296 105.377" fill="#1A1918"/>
<path fill-rule="evenodd" clip-rule="evenodd" d="M200.452 109.823C201.996 110.754 202.944 115.889 202.944 115.889C202.944 115.889 194.864 116.008 190.467 116.008H186.668L182.054 136.092H174.997C174.997 136.092 179.389 114.266 180.425 110.309C180.761 109.028 182.727 109.248 186.046 109.248H191.346C194.769 109.248 198.77 108.811 200.452 109.823V109.823ZM167.602 119.604C167.602 119.604 167.821 118.315 166.855 116.822C166.03 115.55 165.268 115.254 163.096 115.186C156.966 114.993 157.085 119.536 157.085 119.536L167.602 119.604ZM174.251 114.401C175.149 117.642 173.437 125.257 173.437 125.257C173.437 125.257 164.494 125.108 159.595 125.257C158.072 125.304 156.249 125.092 155.796 125.8C155.158 126.793 156.029 128.322 156.767 128.968C157.617 129.711 159.272 129.796 159.867 129.871C163.843 130.376 172.164 130.002 172.164 130.002L170.722 136.384C170.722 136.384 158.963 136.974 153.082 135.57C151.92 135.294 150.832 134.735 150.096 133.942C149.895 133.725 149.721 133.43 149.531 133.174C149.38 132.97 148.937 132.3 148.739 131.771C147.396 128.191 148.896 121.333 150.368 117.658C150.538 117.232 150.753 116.692 150.979 116.233C151.261 115.661 151.499 115.015 151.725 114.673C151.876 114.437 152.064 114.285 152.221 114.062C152.403 113.799 152.614 113.544 152.81 113.316C153.353 112.686 153.969 112.241 154.71 111.688C157.161 109.853 161.595 108.428 166.923 108.973C168.929 109.18 171.958 109.896 173.437 111.959C173.833 112.51 174.029 113.604 174.251 114.402V114.401ZM141.886 109.223L148.729 109.182C148.729 109.182 144.915 127.271 142.972 136.092H135.101C129.6 136.092 124.701 136.773 122.617 132.835C120.595 129.011 122.525 122.723 123.431 118.45C124.071 115.427 125.421 109.247 125.421 109.247L132.51 109.182C132.51 109.182 130.507 118.804 129.673 123.607C129.375 125.328 128.759 126.948 129.402 128.221C130.013 129.432 130.868 129.518 133.473 129.578C134.298 129.598 137.001 129.578 137.001 129.578L141.886 109.223V109.223ZM109.861 122.25C110.577 119.705 111.622 116.945 111.489 114.651C111.346 112.198 109.289 109.964 107.961 109.495C103.964 108.083 100.221 110.056 98.7336 111.666C96.8094 113.75 96.1578 116.185 95.4766 119.537C94.9695 122.025 94.5539 124.652 95.4766 126.593C97.1102 130.023 102.205 129.274 107.69 129.307C108.504 127.125 109.177 124.674 109.861 122.25V122.25ZM119.36 112.209C120.141 117.891 117.143 124.164 115.077 129.619C117.184 129.809 119.029 129.589 119.162 129.746C119.3 129.95 117.75 136.257 117.21 136.274C115.539 136.317 110 136.363 107.69 136.363C100.153 136.363 93.102 136.854 89.5063 133.107C88.0461 131.584 87.0363 128.973 86.7918 127.136C86.3848 124.069 86.8949 120.692 87.6063 117.908C88.2496 115.395 89.0742 113.023 90.3203 110.851C93.4875 105.323 98.9969 101.22 108.232 102.167C110.024 102.351 112.596 103.136 114.204 104.066C114.314 104.132 114.703 104.441 114.792 104.495C116.964 105.877 118.942 109.174 119.36 112.209V112.209ZM86.0129 109.255C85.557 111.332 85.1012 113.685 84.6207 115.737H77.0215C77.6102 113.462 78.0609 111.202 78.65 109.223C81.0816 109.223 83.3426 109.255 86.0133 109.255H86.0129ZM76.75 117.637H84.0781C83.1199 122.94 81.2227 131.494 79.7355 137.449C78.8047 141.175 78.1832 143.895 75.6645 145.862C75.4391 146.039 75.309 145.955 75.1215 146.134C74.6574 146.576 72.5105 147.089 71.3223 147.219C69.3898 147.429 67.2051 147.246 64.8301 147.198C65.4516 144.926 66.1547 142.198 66.7086 140.162C72.4977 140.863 72.6441 135.391 73.7648 130.121C74.4133 127.076 76.3785 118.858 76.75 117.637" fill="#1A1918"/>
<path fill-rule="evenodd" clip-rule="evenodd" d="M59.6513 131.478L59.4942 131.885C56.8185 137.096 52.0767 140.293 45.3134 140.434C42.1517 140.499 39.1392 139.688 37.1712 138.806C32.9243 136.898 29.3521 133.359 27.4013 129.578C24.6028 124.159 24.0982 116.619 29.9169 110.987C30.0067 110.987 29.211 112.209 29.3009 112.209L29.1407 112.73C24.9478 125.857 37.8661 137.107 50.4239 135.82C53.4419 135.511 57.2903 133.859 59.6513 131.478Z" fill="#21609B"/>
<path fill-rule="evenodd" clip-rule="evenodd" d="M52.0525 126.05C55.2119 126.072 58.5119 124.595 60.4662 122.522C58.7564 126.862 53.806 129.652 47.1677 128.764C41.6092 128.02 36.3142 122.427 35.7689 116.823C35.3701 112.743 36.7916 110.309 39.1342 107.356C38.3201 108.9 38.0158 110.092 37.94 110.852C37.0502 119.675 44.9884 126.004 52.0525 126.05" fill="#21609B"/>
<path fill-rule="evenodd" clip-rule="evenodd" d="M60.1482 115.091C59.6572 116.218 56.8295 118.345 55.5807 118.61C50.6357 119.664 47.4689 117.319 45.81 114.651C45.5635 114.252 45.1076 113.164 45.026 112.887C44.3826 110.7 44.6783 107.391 46.5975 105.678C46.0193 107.307 45.935 109.198 46.2393 110.428C46.4236 111.172 46.9853 112.469 47.5475 113.286C48.5701 114.773 49.2185 115.135 50.5326 115.924C51.1244 116.28 51.7592 116.565 52.0334 116.643C53.2791 117.01 55.9092 117.976 60.1486 115.091" fill="#21609B"/>
</g>
<rect x="0.5" y="0.5" width="249" height="249" stroke="#CCCCCC"/>
<defs>
<clipPath id="clip0_208_111">
<rect width="200" height="45.3125" fill="white" transform="translate(25 102)"/>
</clipPath>
</defs>
</svg>
