<svg width="160" height="160" viewBox="0 0 160 160" fill="none" xmlns="http://www.w3.org/2000/svg">
<rect width="160" height="160" fill="white"/>
<path d="M39.897 40.9906H120.103V119.009H39.897V40.9906Z" fill="#0C0824"/>
<path d="M39.8969 40.9906H120.103V119.009H39.8969V40.9906ZM36.25 122.656H123.75V37.3438H36.25V122.656ZM95.2406 72.3438C92.3594 72.3438 91.375 73.8031 91.375 75.0063C91.375 76.3188 92.0312 77.2313 95.8969 79.2344C101.622 82.0063 103.397 84.6656 103.397 88.5688C103.397 94.4031 98.95 97.5375 92.9344 97.5375C90.3526 97.6332 87.7866 97.0968 85.4594 95.975C85.2031 95.8656 85.1687 95.6844 85.1687 95.3906V90.025C85.1687 89.6594 85.35 89.55 85.6063 89.7344C87.7919 91.1398 90.3359 91.8862 92.9344 91.8844C95.8156 91.8844 97.0187 90.6812 97.0187 89.0406C97.0187 87.7281 96.1813 86.5625 92.4969 84.6656C87.3188 82.1875 85.1687 79.6656 85.1687 75.4781C85.1687 70.775 88.85 66.875 95.2313 66.875C97.4525 66.7796 99.6705 67.127 101.756 67.8969C101.876 67.9748 101.974 68.0834 102.038 68.2114C102.102 68.3393 102.131 68.4821 102.122 68.625V73.625C102.122 73.9156 101.941 74.1 101.575 73.9906C99.6474 72.8809 97.4552 72.314 95.2313 72.35L95.2406 72.3438ZM63.8844 76.6812C64.7219 76.7531 65.3781 76.7531 66.8375 76.7531C71.1031 76.7531 75.1125 75.2594 75.1125 69.4625C75.1125 64.8312 72.2313 62.5 67.3844 62.5C65.925 62.5 64.5406 62.5719 63.8844 62.6094V76.6812ZM57.3937 57.3063C57.3937 57.05 57.9031 56.8687 58.1969 56.8687C61.3306 56.7407 64.4668 56.6803 67.6031 56.6875C77.7031 56.6875 81.6406 62.2281 81.6406 69.3031C81.6406 78.5625 74.9312 82.5375 66.6937 82.5375C65.3094 82.5375 64.8344 82.4656 63.85 82.4656V96.4656C63.85 96.7562 63.7406 96.9031 63.4125 96.9031H57.8344C57.5437 96.9031 57.3969 96.7937 57.3969 96.4656V57.3219L57.3937 57.3063Z" fill="#31C5F0"/>
</svg>
