<svg width="160" height="160" viewBox="0 0 160 160" fill="none" xmlns="http://www.w3.org/2000/svg">
<rect x="0.5" y="0.5" width="159" height="159" fill="white"/>
<g clip-path="url(#clip0_231_285)">
<path d="M80.4136 129.747L51.5543 121.736L45.123 49.6028H115.791L109.353 121.725L80.4136 129.747V129.747Z" fill="#264DE4"/>
<path d="M103.841 117.132L109.343 55.5005H80.457V123.615L103.841 117.132V117.132Z" fill="#2965F1"/>
<path d="M59.8668 82.2538L60.6596 91.1006H80.4571V82.2538H59.8668ZM58.2734 64.3477L59.0776 73.1945H80.4571V64.3477H58.2734V64.3477ZM80.4571 105.23L80.4183 105.24L70.5657 102.58L69.9358 95.5241H61.0549L62.2942 109.415L80.4164 114.445L80.4571 114.434V105.23Z" fill="#EBEBEB"/>
<path d="M61.7544 30H72.4691V34.4809H66.2353V38.9618H72.4696V43.4424H61.7544V30ZM74.6123 30H85.3272V33.8964H79.0932V34.6756H85.3272V43.6374H74.6126V39.5457H80.8466V38.7665H74.612V30H74.6123ZM87.4705 30H98.1854V33.8964H91.9513V34.6756H98.1854V43.6374H87.4705V39.5457H93.7045V38.7665H87.4707V30H87.4705Z" fill="black"/>
<path d="M100.991 82.2538L102.588 64.3477H80.4265V73.1945H92.8925L92.0875 82.2538H80.4265V91.1006H91.3205L90.2933 102.574L80.4263 105.237V114.441L98.5628 109.415L98.6958 107.92L100.775 84.6294L100.991 82.2538V82.2538Z" fill="white"/>
</g>
<rect x="0.5" y="0.5" width="159" height="159" stroke="#CCCCCC"/>
<defs>
<clipPath id="clip0_231_285">
<rect width="70.9141" height="100" fill="white" transform="translate(45 30)"/>
</clipPath>
</defs>
</svg>
