<svg width="160" height="160" viewBox="0 0 160 160" fill="none" xmlns="http://www.w3.org/2000/svg">
<rect x="0.5" y="0.5" width="159" height="159" fill="white"/>
<path d="M80 30C51.875 30 30 51.875 30 80C30 112.812 59.6875 126.875 64.375 126.875C67.5 126.875 67.5 125.312 67.5 123.75V115.938C56.5625 119.062 51.875 112.812 50.3125 108.125C50.3125 108.125 50.3125 106.562 47.1875 103.438C45.625 101.875 39.375 98.75 45.625 98.75C50.3125 98.75 53.4375 105 53.4375 105C58.125 111.25 64.375 109.688 67.5 108.125C67.5 105 70.625 101.875 70.625 101.875C58.125 100.312 48.75 95.625 48.75 78.4375C48.75 72.1875 50.3125 67.5 53.4375 64.375C53.4375 64.375 50.3125 58.125 53.4375 50.3125C53.4375 50.3125 61.25 50.3125 67.5 56.5625C72.1875 53.4375 87.8125 53.4375 92.5 56.5625C98.75 50.3125 106.562 50.3125 106.562 50.3125C109.688 61.25 106.562 64.375 106.562 64.375C109.688 67.5 111.25 72.1875 111.25 78.4375C111.25 95.625 100.312 100.312 89.375 101.875C90.9375 103.438 92.5 106.562 92.5 111.25V123.75C92.5 125.312 92.5 126.875 95.625 126.875C100.312 126.875 130 112.812 130 80C130 51.875 108.125 30 80 30Z" fill="black"/>
<rect x="0.5" y="0.5" width="159" height="159" stroke="#CCCCCC"/>
</svg>
