<svg width="250" height="250" viewBox="0 0 250 250" fill="none" xmlns="http://www.w3.org/2000/svg">
<rect x="0.5" y="0.5" width="249" height="249" fill="white"/>
<g clip-path="url(#clip0_169_381)">
<path d="M108.667 175C117.867 175 125.333 167.533 125.333 158.333V141.667H108.667C99.4667 141.667 92 149.133 92 158.333C92 167.533 99.4667 175 108.667 175Z" fill="#0ACF83"/>
<path d="M92 125C92 115.8 99.4667 108.333 108.667 108.333H125.333V141.667H108.667C99.4667 141.667 92 134.2 92 125Z" fill="#A259FF"/>
<path d="M92 91.6667C92 82.4667 99.4667 75 108.667 75H125.333V108.333H108.667C99.4667 108.333 92 100.867 92 91.6667Z" fill="#F24E1E"/>
<path d="M125.333 75H142C151.2 75 158.667 82.4667 158.667 91.6667C158.667 100.867 151.2 108.333 142 108.333H125.333V75Z" fill="#FF7262"/>
<path d="M158.667 125C158.667 134.2 151.2 141.667 142 141.667C132.8 141.667 125.333 134.2 125.333 125C125.333 115.8 132.8 108.333 142 108.333C151.2 108.333 158.667 115.8 158.667 125Z" fill="#1ABCFE"/>
</g>
<rect x="0.5" y="0.5" width="249" height="249" stroke="#CCCCCC"/>
<defs>
<clipPath id="clip0_169_381">
<rect width="66.6667" height="100" fill="white" transform="translate(92 75)"/>
</clipPath>
</defs>
</svg>
