<svg width="250" height="250" viewBox="0 0 250 250" fill="none" xmlns="http://www.w3.org/2000/svg">
<rect x="0.5" y="0.5" width="249" height="249" fill="white"/>
<path d="M125 50C82.8125 50 50 82.8125 50 125C50 174.219 94.5312 195.312 101.562 195.312C106.25 195.312 106.25 192.969 106.25 190.625V178.906C89.8438 183.594 82.8125 174.219 80.4688 167.188C80.4688 167.188 80.4688 164.844 75.7812 160.156C73.4375 157.812 64.0625 153.125 73.4375 153.125C80.4688 153.125 85.1562 162.5 85.1562 162.5C92.1875 171.875 101.562 169.531 106.25 167.188C106.25 162.5 110.938 157.812 110.938 157.812C92.1875 155.469 78.125 148.438 78.125 122.656C78.125 113.281 80.4688 106.25 85.1562 101.562C85.1562 101.562 80.4688 92.1875 85.1562 80.4688C85.1562 80.4688 96.875 80.4688 106.25 89.8438C113.281 85.1562 136.719 85.1562 143.75 89.8438C153.125 80.4688 164.844 80.4688 164.844 80.4688C169.531 96.875 164.844 101.562 164.844 101.562C169.531 106.25 171.875 113.281 171.875 122.656C171.875 148.438 155.469 155.469 139.062 157.812C141.406 160.156 143.75 164.844 143.75 171.875V190.625C143.75 192.969 143.75 195.312 148.438 195.312C155.469 195.312 200 174.219 200 125C200 82.8125 167.188 50 125 50Z" fill="black"/>
<rect x="0.5" y="0.5" width="249" height="249" stroke="#CCCCCC"/>
</svg>
