<svg width="250" height="250" viewBox="0 0 250 250" fill="none" xmlns="http://www.w3.org/2000/svg">
<rect x="0.5" y="0.5" width="249" height="249" fill="white"/>
<path d="M50 50H200V200H50V50Z" fill="#F7DF1E"/>
<path d="M89.4405 175.351L100.919 168.404C103.134 172.33 105.148 175.652 109.981 175.652C114.612 175.652 117.533 173.841 117.533 166.793V118.865H131.629V166.992C131.629 181.592 123.071 188.238 110.585 188.238C99.3083 188.238 92.7628 182.398 89.4399 175.35L89.4405 175.351ZM139.286 173.84L150.763 167.195C153.785 172.129 157.712 175.754 164.659 175.754C170.5 175.754 174.224 172.834 174.224 168.806C174.224 163.973 170.398 162.261 163.954 159.443L160.43 157.931C150.26 153.602 143.514 148.165 143.514 136.686C143.514 126.114 151.569 118.058 164.156 118.058C173.117 118.058 179.561 121.18 184.192 129.336L173.217 136.385C170.8 132.055 168.183 130.344 164.155 130.344C160.027 130.344 157.409 132.962 157.409 136.385C157.409 140.613 160.027 142.326 166.068 144.944L169.592 146.454C181.574 151.59 188.32 156.825 188.32 168.605C188.32 181.293 178.352 188.24 164.96 188.24C151.871 188.24 143.413 181.997 139.285 173.841" fill="black"/>
<rect x="0.5" y="0.5" width="249" height="249" stroke="#CCCCCC"/>
</svg>
