<svg width="250" height="250" viewBox="0 0 250 250" fill="none" xmlns="http://www.w3.org/2000/svg">
<rect x="0.5" y="0.5" width="249" height="249" fill="white"/>
<path d="M64.8452 66.486H185.155V183.514H64.8452V66.486Z" fill="#0C0824"/>
<path d="M64.8453 66.4859H185.155V183.514H64.8453V66.4859ZM59.375 188.984H190.625V61.0156H59.375V188.984ZM147.861 113.516C143.539 113.516 142.062 115.705 142.062 117.509C142.062 119.478 143.047 120.847 148.845 123.852C157.433 128.009 160.095 131.998 160.095 137.853C160.095 146.605 153.425 151.306 144.402 151.306C140.529 151.45 136.68 150.645 133.189 148.962C132.805 148.798 132.753 148.527 132.753 148.086V140.037C132.753 139.489 133.025 139.325 133.409 139.602C136.688 141.71 140.504 142.829 144.402 142.827C148.723 142.827 150.528 141.022 150.528 138.561C150.528 136.592 149.272 134.844 143.745 131.998C135.978 128.281 132.753 124.498 132.753 118.217C132.753 111.163 138.275 105.313 147.847 105.313C151.179 105.169 154.506 105.69 157.634 106.845C157.815 106.962 157.96 107.125 158.057 107.317C158.153 107.509 158.197 107.723 158.183 107.938V115.438C158.183 115.873 157.911 116.15 157.362 115.986C154.471 114.321 151.183 113.471 147.847 113.525L147.861 113.516ZM100.827 120.022C102.083 120.13 103.067 120.13 105.256 120.13C111.655 120.13 117.669 117.889 117.669 109.194C117.669 102.247 113.347 98.75 106.077 98.75C103.888 98.75 101.811 98.8578 100.827 98.9141V120.022ZM91.0906 90.9594C91.0906 90.575 91.8547 90.3031 92.2953 90.3031C96.9959 90.111 101.7 90.0204 106.405 90.0313C121.555 90.0313 127.461 98.3422 127.461 108.955C127.461 122.844 117.397 128.806 105.041 128.806C102.964 128.806 102.252 128.698 100.775 128.698V149.698C100.775 150.134 100.611 150.355 100.119 150.355H91.7516C91.3156 150.355 91.0953 150.191 91.0953 149.698V90.9828L91.0906 90.9594Z" fill="#31C5F0"/>
<rect x="0.5" y="0.5" width="249" height="249" stroke="#CCCCCC"/>
</svg>
