<svg width="250" height="250" viewBox="0 0 250 250" fill="none" xmlns="http://www.w3.org/2000/svg">
<rect x="0.5" y="0.5" width="249" height="249" fill="white"/>
<rect x="0.5" y="0.5" width="249" height="249" stroke="#CCCCCC"/>
<g clip-path="url(#clip0_169_321)">
<path d="M125.121 199.621L81.832 187.604L72.1851 79.4042H178.186L168.53 187.587L125.121 199.621V199.621Z" fill="#264DE4"/>
<path d="M160.262 180.698L168.514 88.2509H125.186V190.422L160.262 180.698V180.698Z" fill="#2965F1"/>
<path d="M94.3002 128.381L95.4894 141.651H125.186V128.381H94.3002ZM91.9102 101.521L93.1164 114.792H125.186V101.521H91.9102V101.521ZM125.186 162.845L125.127 162.86L110.349 158.87L109.404 148.286H96.0823L97.9413 169.122L125.125 176.668L125.186 176.652V162.845Z" fill="#EBEBEB"/>
<path d="M97.1318 50H113.204V56.7213H103.853V63.4427H113.205V70.1636H97.1318V50ZM116.419 50H132.491V55.8446H123.14V57.0134H132.491V70.4561H116.419V64.3186H125.77V63.1497H116.418V50H116.419ZM135.706 50H151.778V55.8446H142.427V57.0134H151.778V70.4561H135.706V64.3186H145.057V63.1497H135.706V50H135.706Z" fill="black"/>
<path d="M155.986 128.381L158.382 101.521H125.14V114.792H143.839L142.631 128.381H125.14V141.651H141.481L139.94 158.861L125.14 162.856V176.662L152.345 169.122L152.544 166.88L155.663 131.944L155.986 128.381V128.381Z" fill="white"/>
</g>
<defs>
<clipPath id="clip0_169_321">
<rect width="106.371" height="150" fill="white" transform="translate(72 50)"/>
</clipPath>
</defs>
</svg>
