<svg width="60" height="60" viewBox="0 0 60 60" fill="none" xmlns="http://www.w3.org/2000/svg">
<path d="M30 7.5C44.4975 7.5 56.25 16.66 56.25 27.9625C56.25 39.2625 44.4975 48.4225 30 48.4225C28.5564 48.4233 27.1143 48.3314 25.6825 48.1475L14.6625 55.355C13.41 56.0175 12.9675 55.945 13.4825 54.3225L15.7125 45.1275C8.5125 41.4775 3.75 35.1525 3.75 27.9625C3.75 16.6625 15.5025 7.5 30 7.5ZM44.7675 27.65L48.4425 24.09C48.6546 23.8698 48.7729 23.5758 48.7725 23.2701C48.7721 22.9644 48.6531 22.6707 48.4405 22.451C48.2279 22.2313 47.9384 22.1027 47.6328 22.0922C47.3273 22.0818 47.0296 22.1903 46.8025 22.395L41.9825 27.06V23.205C41.9825 22.892 41.8582 22.5919 41.6369 22.3706C41.4156 22.1493 41.1155 22.025 40.8025 22.025C40.4895 22.025 40.1894 22.1493 39.9681 22.3706C39.7468 22.5919 39.6225 22.892 39.6225 23.205V29.5975C39.5783 29.7799 39.5783 29.9701 39.6225 30.1525V33.75C39.6225 34.063 39.7468 34.3631 39.9681 34.5844C40.1894 34.8057 40.4895 34.93 40.8025 34.93C41.1155 34.93 41.4156 34.8057 41.6369 34.5844C41.8582 34.3631 41.9825 34.063 41.9825 33.75V30.3425L43.05 29.31L46.62 34.3925C46.7091 34.5194 46.8224 34.6275 46.9533 34.7106C47.0842 34.7937 47.2302 34.8502 47.383 34.8769C47.5357 34.9036 47.6922 34.9 47.8436 34.8662C47.9949 34.8324 48.1381 34.7691 48.265 34.68C48.3919 34.5909 48.5 34.4776 48.5831 34.3467C48.6662 34.2158 48.7227 34.0698 48.7494 33.917C48.7761 33.7643 48.7725 33.6078 48.7387 33.4564C48.7049 33.3051 48.6416 33.1619 48.5525 33.035L44.7675 27.6475V27.65ZM37.3725 32.46H33.7225V23.2425C33.7085 22.9393 33.5782 22.6531 33.3587 22.4434C33.1392 22.2338 32.8473 22.1168 32.5438 22.1168C32.2402 22.1168 31.9483 22.2338 31.7288 22.4434C31.5093 22.6531 31.379 22.9393 31.365 23.2425V33.64C31.365 34.29 31.89 34.82 32.5425 34.82H37.3725C37.6855 34.82 37.9856 34.6957 38.2069 34.4744C38.4282 34.2531 38.5525 33.953 38.5525 33.64C38.5525 33.327 38.4282 33.0269 38.2069 32.8056C37.9856 32.5843 37.6855 32.46 37.3725 32.46ZM22.73 29.73L24.47 25.4625L26.065 29.73H22.73ZM29.0375 30.95L29.0425 30.91C29.0419 30.6127 28.9284 30.3268 28.725 30.11L26.11 23.11C26.0004 22.7764 25.7916 22.4842 25.5115 22.2725C25.2314 22.0607 24.8933 21.9395 24.5425 21.925C24.1891 21.9234 23.8436 22.0295 23.552 22.2292C23.2604 22.4288 23.0364 22.7125 22.91 23.0425L18.7575 33.23C18.6989 33.3735 18.6691 33.5271 18.6699 33.6821C18.6707 33.837 18.7019 33.9903 18.7619 34.1332C18.8219 34.2761 18.9095 34.4058 19.0196 34.5148C19.1298 34.6239 19.2603 34.7101 19.4037 34.7688C19.5472 34.8274 19.7008 34.8571 19.8558 34.8564C20.0108 34.8556 20.1641 34.8243 20.307 34.7643C20.4499 34.7043 20.5795 34.6167 20.6886 34.5066C20.7976 34.3965 20.8839 34.266 20.9425 34.1225L21.7675 32.09H26.9425L27.69 34.09C27.7408 34.2395 27.8211 34.3773 27.9262 34.4952C28.0312 34.6131 28.1588 34.7087 28.3015 34.7763C28.4442 34.844 28.599 34.8824 28.7567 34.8891C28.9145 34.8959 29.072 34.8709 29.2199 34.8157C29.3678 34.7605 29.5032 34.6761 29.6179 34.5676C29.7326 34.4592 29.8244 34.3288 29.8878 34.1842C29.9513 34.0396 29.985 33.8837 29.9871 33.7258C29.9892 33.5679 29.9596 33.4112 29.9 33.265L29.0375 30.95ZM20.7325 23.255C20.7325 22.9425 20.6085 22.6427 20.3878 22.4215C20.167 22.2003 19.8675 22.0757 19.555 22.075H11.4425C11.1295 22.075 10.8294 22.1993 10.6081 22.4206C10.3868 22.6419 10.2625 22.942 10.2625 23.255C10.2625 23.568 10.3868 23.8681 10.6081 24.0894C10.8294 24.3107 11.1295 24.435 11.4425 24.435H14.3425V33.775C14.3425 34.088 14.4668 34.3881 14.6881 34.6094C14.9094 34.8307 15.2095 34.955 15.5225 34.955C15.8355 34.955 16.1356 34.8307 16.3569 34.6094C16.5782 34.3881 16.7025 34.088 16.7025 33.775V24.435H19.5525C19.8655 24.435 20.1656 24.3107 20.3869 24.0894C20.6082 23.8681 20.7325 23.568 20.7325 23.255Z" fill="#333333"/>
</svg>
